HIERARCHY
ROOT joint_Root
{
	OFFSET 0.0 0.0 0.0
	CHANNELS 6 Xposition Yposition Zposition Zrotation Xrotation Yrotation 
	JOINT Hips
	{
		OFFSET -0.726466 93.3139 -2.00062
		CHANNELS 6 Xposition Yposition Zposition Zrotation Xrotation Yrotation 
		JOINT Spine
		{
			OFFSET 15.7357 0.0 0.0
			CHANNELS 6 Xposition Yposition Zposition Zrotation Xrotation Yrotation 
			JOINT Chest
			{
				OFFSET 8.98455 -0.406207 0.0
				CHANNELS 6 Xposition Yposition Zposition Zrotation Xrotation Yrotation 
				JOINT Neck
				{
					OFFSET 16.3773 0.0 0.0
					CHANNELS 6 Xposition Yposition Zposition Zrotation Xrotation Yrotation 
					JOINT Head
					{
						OFFSET 6.45672 0.0 0.0
						CHANNELS 6 Xposition Yposition Zposition Zrotation Xrotation Yrotation 
						End Site
						{
							OFFSET 0.0 0.0 0.0
						}
					}
				}
				JOINT Shoulder_L
				{
					OFFSET 12.9942 -0.242716 4.98039
					CHANNELS 6 Xposition Yposition Zposition Zrotation Xrotation Yrotation 
					JOINT UpperArm_L
					{
						OFFSET 5.34809 0.0 0.0
						CHANNELS 6 Xposition Yposition Zposition Zrotation Xrotation Yrotation 
						JOINT LowerArm_L
						{
							OFFSET 24.3286 1.87007e-05 0.0
							CHANNELS 6 Xposition Yposition Zposition Zrotation Xrotation Yrotation 
							JOINT Hand_L
							{
								OFFSET 22.2916 0.0 0.0
								CHANNELS 6 Xposition Yposition Zposition Zrotation Xrotation Yrotation 
								End Site
								{
									OFFSET 0.0 0.0 0.0
								}
							}
						}
					}
				}
				JOINT Shoulder_R
				{
					OFFSET 12.9945 -0.242716 -4.98039
					CHANNELS 6 Xposition Yposition Zposition Zrotation Xrotation Yrotation 
					JOINT UpperArm_R
					{
						OFFSET -5.34813 0.0 0.0
						CHANNELS 6 Xposition Yposition Zposition Zrotation Xrotation Yrotation 
						JOINT LowerArm_R
						{
							OFFSET -24.3289 0.000322201 0.0
							CHANNELS 6 Xposition Yposition Zposition Zrotation Xrotation Yrotation 
							JOINT Hand_R
							{
								OFFSET -22.2915 -0.000108084 0.0
								CHANNELS 6 Xposition Yposition Zposition Zrotation Xrotation Yrotation 
								End Site
								{
									OFFSET 0.0 0.0 0.0
								}
							}
						}
					}
				}
			}
		}
		JOINT UpperLeg_L
		{
			OFFSET -2.19248 -6.46944 0.0
			CHANNELS 6 Xposition Yposition Zposition Zrotation Xrotation Yrotation 
			JOINT LowerLeg_L
			{
				OFFSET 39.0811 0.0 -1.23785e-05
				CHANNELS 6 Xposition Yposition Zposition Zrotation Xrotation Yrotation 
				JOINT Foot_L
				{
					OFFSET 40.9854 0.0 -1.26872e-05
					CHANNELS 6 Xposition Yposition Zposition Zrotation Xrotation Yrotation 
					JOINT Toes_L
					{
						OFFSET 11.7543 0.0 0.0
						CHANNELS 6 Xposition Yposition Zposition Zrotation Xrotation Yrotation 
						End Site
						{
							OFFSET 0.0 0.0 0.0
						}
					}
				}
			}
		}
		JOINT UpperLeg_R
		{
			OFFSET -2.19251 6.46944 0.0
			CHANNELS 6 Xposition Yposition Zposition Zrotation Xrotation Yrotation 
			JOINT LowerLeg_R
			{
				OFFSET -39.0811 -0.00228153 -0.0401928
				CHANNELS 6 Xposition Yposition Zposition Zrotation Xrotation Yrotation 
				JOINT Foot_R
				{
					OFFSET -40.9854 0.0 0.0
					CHANNELS 6 Xposition Yposition Zposition Zrotation Xrotation Yrotation 
					JOINT Toes_R
					{
						OFFSET -11.7543 0.0 0.0
						CHANNELS 6 Xposition Yposition Zposition Zrotation Xrotation Yrotation 
						End Site
						{
							OFFSET 0.0 0.0 0.0
						}
					}
				}
			}
		}
	}
}
MOTION
Frames:	9
Frame Time:	0.0333333
0.000000 0.000000 0.000000 0.000000 0.000000 -0.000000 -1.000690 80.821100 -412.495000 86.878000 -3.481670 -8.542720 15.735700 0.000005 -0.000001 99.230900 78.655600 -97.041600 8.984550 -0.406207 -0.000000 14.582500 3.724020 3.905340 16.377300 -0.000001 -0.000001 3.113890 -0.656629 0.167781 6.456720 -0.000001 -0.000000 -3.669940 -1.682110 -3.707910 12.994200 -0.242716 4.980390 -88.254500 -4.030360 -66.558500 5.348090 -0.000007 -0.000001 -70.241900 26.989000 9.882130 24.328600 0.000019 0.000005 3.210820 4.285090 -36.898200 22.291600 -0.000001 0.000005 -6.622570 5.554070 -8.897070 12.994500 -0.242716 -4.980390 89.594400 1.022740 -68.373100 -5.348130 -0.000001 -0.000004 -42.484600 15.239700 -42.185900 -24.328900 0.000322 -0.000009 -14.279900 -7.105970 -64.075300 -22.291500 -0.000108 -0.000004 0.822786 5.534450 -7.992430 -2.192480 -6.469440 -0.000000 -179.655000 -7.814680 -42.746400 39.081100 -0.000007 -0.000012 -0.404087 -0.217985 118.346000 40.985400 -0.000006 -0.000013 8.761870 -3.001430 -44.354400 11.754300 -0.000000 0.000003 -0.008463 -0.091782 -20.314700 -2.192510 6.469440 -0.000001 -175.158000 12.361800 157.759000 -39.081100 -0.002282 -0.040193 0.095533 -0.054148 59.610100 -40.985400 0.000008 0.000006 2.657270 -3.769410 -91.805100 -11.754300 -0.000006 -0.000006 -0.982350 -1.149010 -20.450200
0.000000 0.000000 0.000000 0.000000 0.000000 -0.000000 -0.412687 82.819300 -404.748000 89.426500 -6.223860 -9.667680 15.735700 0.000005 -0.000001 104.149000 79.040000 -103.631000 8.984550 -0.406207 -0.000000 13.506900 5.326180 0.404718 16.377300 -0.000001 -0.000001 3.172840 -0.635625 0.650175 6.456720 -0.000001 -0.000000 -3.387590 -3.327830 -2.960150 12.994200 -0.242716 4.980390 -88.077500 -4.154340 -65.139900 5.348090 -0.000007 -0.000001 -68.283500 25.861000 15.280300 24.328600 0.000019 0.000005 1.389900 1.838700 -37.096900 22.291600 -0.000001 0.000005 -5.911180 5.561890 -9.280800 12.994500 -0.242716 -4.980390 90.181200 -0.466218 -68.755400 -5.348130 -0.000001 -0.000004 -40.470600 13.077200 -46.585200 -24.328900 0.000322 -0.000009 -14.938700 -6.049370 -68.444100 -22.291500 -0.000108 -0.000004 0.889313 5.530600 -7.821530 -2.192480 -6.469440 -0.000000 175.530000 -8.695200 -48.904200 39.081100 -0.000007 -0.000012 -0.299052 -0.113161 110.728000 40.985400 -0.000006 -0.000013 8.100610 -3.359000 -51.312900 11.754300 -0.000000 0.000003 -0.007910 -0.087305 -20.131800 -2.192510 6.469440 -0.000001 179.372000 11.740500 166.140000 -39.081100 -0.002282 -0.040193 0.022952 -0.016288 50.424800 -40.985400 0.000008 0.000006 2.387010 -0.344553 -87.223300 -11.754300 -0.000006 -0.000006 -0.874087 -0.990168 -24.100900
0.000000 0.000000 0.000000 0.000000 0.000000 -0.000000 0.144310 85.857900 -396.789000 91.265200 -7.718400 -10.841600 15.735700 0.000005 -0.000001 107.239000 79.510200 -108.092000 8.984550 -0.406207 -0.000000 12.369100 6.126300 -2.371990 16.377300 -0.000001 -0.000001 3.653050 -0.686066 0.825105 6.456720 -0.000001 -0.000000 -3.163230 -4.543520 -2.011970 12.994200 -0.242716 4.980390 -87.547100 -5.091190 -64.232300 5.348090 -0.000007 -0.000001 -67.585900 23.808100 19.467000 24.328600 0.000019 0.000005 0.861658 1.116140 -37.671100 22.291600 -0.000001 0.000005 -6.804190 5.556540 -9.018360 12.994500 -0.242716 -4.980390 90.669400 -1.732850 -68.873500 -5.348130 -0.000001 -0.000004 -40.051200 12.570000 -48.640600 -24.328900 0.000322 -0.000009 -16.082400 -5.466150 -71.713800 -22.291500 -0.000108 -0.000004 1.049910 5.529060 -7.753600 -2.192480 -6.469440 -0.000000 172.610000 -8.142530 -51.744200 39.081100 -0.000007 -0.000012 -0.146546 -0.017585 96.846600 40.985400 -0.000006 -0.000013 7.377490 -3.767910 -57.391900 11.754300 -0.000000 0.000003 -0.005911 -0.070031 -19.426900 -2.192510 6.469440 -0.000001 174.994000 11.740000 173.691000 -39.081100 -0.002282 -0.040193 0.010935 -0.009034 40.283200 -40.985400 0.000008 0.000006 2.244340 2.574030 -74.947600 -11.754300 -0.000006 -0.000006 -0.089139 -0.416771 -33.917800
0.000000 0.000000 0.000000 0.000000 0.000000 -0.000000 0.578153 89.222800 -389.039000 91.748700 -8.969550 -12.268700 15.735700 0.000005 -0.000001 110.321000 79.863100 -112.034000 8.984550 -0.406207 -0.000000 11.413900 6.930720 -4.122460 16.377300 -0.000001 -0.000001 4.003590 -0.676768 0.636883 6.456720 -0.000001 -0.000000 -3.361310 -5.473230 -1.128330 12.994200 -0.242716 4.980390 -87.082300 -5.969510 -63.891200 5.348090 -0.000007 -0.000001 -68.205400 23.241000 22.539400 24.328600 0.000019 0.000005 0.536371 0.665974 -38.854700 22.291600 -0.000001 0.000005 -6.609900 5.562180 -9.294310 12.994500 -0.242716 -4.980390 90.939100 -2.448320 -69.007300 -5.348130 -0.000001 -0.000004 -40.220000 12.826000 -49.396100 -24.328900 0.000322 -0.000009 -15.334900 -4.575630 -73.778400 -22.291500 -0.000108 -0.000004 0.263867 5.520220 -7.370250 -2.192480 -6.469440 -0.000000 171.579000 -8.203710 -51.904500 39.081100 -0.000007 -0.000012 -0.025410 0.005326 78.176800 40.985400 -0.000006 -0.000013 7.161310 -4.526850 -61.468700 11.754300 -0.000000 0.000003 -0.006076 -0.071529 -19.488000 -2.192510 6.469440 -0.000001 172.339000 12.868200 178.168000 -39.081100 -0.002282 -0.040193 0.038762 -0.056612 32.064900 -40.985400 0.000008 0.000006 2.619260 5.900180 -55.673400 -11.754300 -0.000006 -0.000006 -0.237748 -0.704411 -47.072900
0.000000 0.000000 0.000000 0.000000 0.000000 -0.000000 0.815180 91.955800 -381.401000 90.285300 -9.224640 -12.895300 15.735700 0.000005 -0.000001 112.396000 79.800600 -114.182000 8.984550 -0.406207 -0.000000 11.290900 7.657310 -4.332780 16.377300 -0.000001 -0.000001 4.354800 -0.585614 0.479767 6.456720 -0.000001 -0.000000 -4.253720 -6.091500 -0.201006 12.994200 -0.242716 4.980390 -86.670900 -6.793280 -63.813500 5.348090 -0.000007 -0.000001 -69.252700 21.333500 23.935900 24.328600 0.000019 0.000005 0.289703 0.341319 -40.317500 22.291600 -0.000001 0.000005 -5.609410 5.560400 -9.207080 12.994500 -0.242716 -4.980390 90.862000 -2.319620 -69.608900 -5.348130 -0.000001 -0.000004 -40.455000 13.211800 -48.840300 -24.328900 0.000322 -0.000009 -14.679500 -4.000480 -75.085600 -22.291500 -0.000108 -0.000004 0.452392 5.519980 -7.361170 -2.192480 -6.469440 -0.000000 173.063000 -8.803420 -48.309900 39.081100 -0.000007 -0.000012 0.021866 -0.014662 56.148400 40.985400 -0.000006 -0.000013 6.324770 -3.087540 -64.228800 11.754300 -0.000000 0.000003 -0.006196 -0.072611 -19.532100 -2.192510 6.469440 -0.000001 170.895000 15.585200 -178.068000 -39.081100 -0.002282 -0.040193 0.088368 -0.174670 25.964500 -40.985400 0.000008 0.000006 -1.924620 10.664100 -36.424500 -11.754300 -0.000006 -0.000006 -0.160481 -0.575023 -40.959900
0.000000 0.000000 0.000000 0.000000 0.000000 -0.000000 0.734795 92.852500 -373.254000 87.950300 -8.976830 -11.858800 15.735700 0.000005 -0.000001 113.588000 79.243500 -115.008000 8.984550 -0.406207 -0.000000 12.154100 8.478520 -3.748030 16.377300 -0.000001 -0.000001 4.594350 -0.554296 0.423180 6.456720 -0.000001 -0.000000 -4.843850 -6.341360 0.814610 12.994200 -0.242716 4.980390 -86.359200 -7.400610 -63.711100 5.348090 -0.000007 -0.000001 -69.481400 17.508200 23.659400 24.328600 0.000019 0.000005 0.027438 0.030433 -42.240500 22.291600 -0.000001 0.000005 -4.517410 5.553680 -8.880970 12.994500 -0.242716 -4.980390 90.773500 -2.171020 -70.385200 -5.348130 -0.000001 -0.000004 -41.717200 14.075700 -46.743200 -24.328900 0.000322 -0.000009 -14.738300 -3.943860 -75.345800 -22.291500 -0.000108 -0.000004 0.947538 5.522680 -7.476380 -2.192480 -6.469440 -0.000000 175.685000 -9.954730 -42.168000 39.081100 -0.000007 -0.000012 0.018841 -0.026543 35.367500 40.985400 -0.000006 -0.000013 4.431080 -0.219704 -66.497000 11.754300 -0.000000 0.000003 -0.006299 -0.073537 -19.569900 -2.192510 6.469440 -0.000001 169.952000 16.248700 -173.787000 -39.081100 -0.002282 -0.040193 0.131438 -0.280556 24.545500 -40.985400 0.000008 0.000006 -7.873000 9.473650 -25.542000 -11.754300 -0.000006 -0.000006 -0.020546 -0.170292 -23.531600
0.000000 0.000000 0.000000 0.000000 0.000000 -0.000000 0.687633 92.267500 -364.672000 86.310900 -9.549540 -11.154100 15.735700 0.000005 -0.000001 115.650000 78.860000 -116.914000 8.984550 -0.406207 -0.000000 12.551200 9.501960 -3.579640 16.377300 -0.000001 -0.000001 4.291320 -0.362598 0.383079 6.456720 -0.000001 -0.000000 -4.260760 -6.427510 1.614050 12.994200 -0.242716 4.980390 -86.266100 -7.488320 -63.400100 5.348090 -0.000007 -0.000001 -69.324500 14.003400 21.945100 24.328600 0.000019 0.000005 -0.379312 -0.392913 -43.996300 22.291600 -0.000001 0.000005 -2.211050 5.561080 -9.236950 12.994500 -0.242716 -4.980390 90.739000 -2.142310 -70.963700 -5.348130 -0.000001 -0.000004 -43.707300 15.539700 -43.780500 -24.328900 0.000322 -0.000009 -13.744400 -4.024470 -73.986800 -22.291500 -0.000108 -0.000004 1.580310 5.526420 -7.637330 -2.192480 -6.469440 -0.000000 177.129000 -11.864600 -37.841600 39.081100 -0.000007 -0.000012 0.000249 -0.000653 20.856700 40.985400 -0.000006 -0.000013 0.990775 0.544058 -68.887500 11.754300 -0.000000 0.000003 -0.007564 -0.084447 -20.015100 -2.192510 6.469440 -0.000001 168.843000 14.608200 -171.340000 -39.081100 -0.002282 -0.040193 0.140051 -0.242300 29.439300 -40.985400 0.000008 0.000006 -6.662910 7.068890 -30.065600 -11.754300 -0.000006 -0.000006 -0.021343 -0.174616 -23.709800
0.000000 0.000000 0.000000 0.000000 0.000000 -0.000000 0.826708 90.689000 -355.905000 85.198100 -10.243100 -10.703000 15.735700 0.000005 -0.000001 116.695000 78.699100 -117.960000 8.984550 -0.406207 -0.000000 12.680100 10.003400 -3.649280 16.377300 -0.000001 -0.000001 4.243110 0.068269 0.445148 6.456720 -0.000001 -0.000000 -3.893170 -6.213630 2.273370 12.994200 -0.242716 4.980390 -86.571100 -6.808160 -63.186200 5.348090 -0.000007 -0.000001 -69.032900 10.047300 18.915800 24.328600 0.000019 0.000005 0.415542 0.409169 -45.431900 22.291600 -0.000001 0.000005 -0.159083 5.565480 -9.458120 12.994500 -0.242716 -4.980390 90.450500 -1.369180 -71.786900 -5.348130 -0.000001 -0.000004 -45.556400 17.487200 -40.313400 -24.328900 0.000322 -0.000009 -11.248900 -3.977560 -70.767300 -22.291500 -0.000108 -0.000004 2.701170 5.538420 -8.166900 -2.192480 -6.469440 -0.000000 177.644000 -13.830400 -37.265700 39.081100 -0.000007 -0.000012 0.000481 -0.001471 18.110900 40.985400 -0.000006 -0.000013 -0.293282 -4.144940 -70.246600 11.754300 -0.000000 0.000003 -0.006731 -0.077342 -19.725100 -2.192510 6.469440 -0.000001 168.315000 10.550500 -170.169000 -39.081100 -0.002282 -0.040193 0.162245 -0.217689 36.137100 -40.985400 0.000008 0.000006 -5.062590 3.205540 -34.612200 -11.754300 -0.000006 -0.000006 -0.022083 -0.178564 -23.872700
0.000000 0.000000 0.000000 0.000000 0.000000 -0.000000 1.148290 88.547600 -347.352000 85.972400 -9.772910 -11.228200 15.735700 0.000005 -0.000001 114.660000 79.191900 -116.371000 8.984550 -0.406207 -0.000000 12.120800 8.875650 -4.369130 16.377300 -0.000001 -0.000001 4.833030 0.364879 0.758055 6.456720 -0.000001 -0.000000 -4.754930 -5.715450 2.508710 12.994200 -0.242716 4.980390 -87.604600 -4.841570 -63.636300 5.348090 -0.000007 -0.000001 -68.074000 7.269540 14.815600 24.328600 0.000019 0.000005 0.034132 0.031933 -47.131400 22.291600 -0.000001 0.000005 0.317092 5.566780 -9.523570 12.994500 -0.242716 -4.980390 89.851900 0.461685 -72.213200 -5.348130 -0.000001 -0.000004 -46.186000 20.379600 -36.852900 -24.328900 0.000322 -0.000009 -9.510760 -4.306770 -65.849700 -22.291500 -0.000108 -0.000004 4.316600 5.550580 -8.731780 -2.192480 -6.469440 -0.000000 175.946000 -13.421200 -44.192800 39.081100 -0.000007 -0.000012 0.241195 -0.404193 30.826200 40.985400 -0.000006 -0.000013 6.112030 -11.736300 -58.383700 11.754300 -0.000000 0.000003 -0.013842 -0.130409 -21.895800 -2.192510 6.469440 -0.000001 168.432000 5.887540 -171.772000 -39.081100 -0.002282 -0.040193 0.237177 -0.234601 44.916000 -40.985400 0.000008 0.000006 -0.881821 -2.069030 -35.031400 -11.754300 -0.000006 -0.000006 -0.021888 -0.177528 -23.830000
